<?xml version="1.0" standalone="no"?>
<!DOCTYPE svg PUBLIC "-//W3C//DTD SVG 20010904//EN"
 "http://www.w3.org/TR/2001/REC-SVG-20010904/DTD/svg10.dtd">
<svg version="1.0" xmlns="http://www.w3.org/2000/svg"
 width="340.000000pt" height="340.000000pt" viewBox="0 0 340.000000 340.000000"
 preserveAspectRatio="xMidYMid meet">
<metadata>
Created by potrace 1.14, written by Peter Selinger 2001-2017
</metadata>
<g transform="translate(0.000000,340.000000) scale(0.100000,-0.100000)"
fill="#000000" stroke="none">
<path d="M894 3298 c-114 -24 -252 -94 -394 -201 l-45 -33 -34 23 c-117 79
-257 -59 -186 -185 l23 -41 -32 -38 c-109 -131 -190 -288 -216 -421 -25 -124
0 -292 43 -292 7 0 42 48 77 107 81 135 220 331 282 397 l47 51 131 -130 131
-130 37 45 c20 25 62 70 93 100 l57 55 -128 130 -129 130 77 62 c109 89 198
150 345 239 70 42 130 81 133 86 10 15 -15 35 -59 47 -64 18 -163 18 -253 -1z"/>
<path d="M2245 3295 c-22 -8 -41 -15 -42 -15 -2 0 -3 -9 -3 -19 0 -13 21 -30
68 -56 111 -61 237 -145 344 -230 56 -44 110 -86 120 -94 18 -14 12 -22 -113
-147 l-133 -133 55 -58 c30 -32 71 -78 91 -103 l37 -45 139 138 139 139 64
-79 c74 -89 128 -162 183 -248 22 -33 47 -71 57 -85 9 -15 28 -49 42 -76 36
-72 52 -83 80 -55 20 19 22 34 26 140 2 90 -1 133 -14 177 -26 90 -102 241
-165 324 -75 100 -73 94 -50 132 37 62 18 151 -42 188 -41 26 -113 23 -154 -7
l-28 -20 -60 46 c-122 94 -240 156 -353 185 -77 20 -234 20 -288 1z"/>
<path d="M2529 828 l-96 -96 316 -315 c174 -173 326 -320 338 -326 56 -28 136
0 173 61 24 39 25 67 6 111 -7 18 -155 174 -327 347 l-314 315 -96 -97z"/>
<path d="M443 607 c-266 -267 -312 -317 -318 -349 -19 -103 79 -191 177 -159
41 14 658 626 643 639 -6 4 -51 47 -101 95 l-90 87 -311 -313z"/>
</g>
</svg>
